<svg width="759" height="608" viewBox="0 0 759 608" fill="none" xmlns="http://www.w3.org/2000/svg">
<path d="M557.425 528.912L198.534 529.802C198.534 529.802 117.922 502.834 82.3981 403.321C62.3982 347.215 61.6806 286.043 80.3587 229.483C80.9643 227.632 81.5966 225.78 82.2467 223.946L82.3268 223.723C82.9858 221.871 83.6626 220.028 84.3573 218.194C84.3573 218.096 84.4285 217.998 84.473 217.9C84.5176 217.802 84.5621 217.651 84.6155 217.526C91.5934 199.265 100.552 181.823 111.332 165.513C111.483 165.29 111.626 165.068 111.777 164.854C113.113 162.842 114.479 160.848 115.874 158.871C128.962 140.333 144.362 123.539 161.701 108.897C208.669 69.2322 278.318 37.3227 381.203 34.8476C381.203 34.8476 385.024 34.7407 391.81 35.0345H392.032C423.932 36.4323 519.915 46.6089 593.714 116.144C595.543 117.859 597.351 119.613 599.138 121.406C610.639 132.886 621.055 145.404 630.254 158.8C631.607 160.767 632.925 162.753 634.243 164.783C634.395 164.997 634.537 165.219 634.671 165.442C645.161 181.782 653.98 199.136 660.995 217.241C661.029 217.311 661.059 217.382 661.084 217.455L661.343 218.123C662.055 219.948 662.741 221.791 663.427 223.652L663.507 223.874C664.178 225.697 664.831 227.542 665.466 229.412C669.381 240.808 672.708 252.398 675.431 264.135C675.431 264.135 716.165 417.566 557.425 528.912Z" fill="#F9A826"/>
<path opacity="0.7" d="M557.425 528.912L198.534 529.802C198.534 529.802 117.922 502.834 82.3981 403.321C62.3982 347.215 61.6806 286.043 80.3587 229.483C80.9643 227.632 81.5966 225.78 82.2467 223.946L82.3268 223.723C82.9858 221.871 83.6626 220.028 84.3573 218.194C84.3573 218.096 84.4285 217.998 84.473 217.9C84.5176 217.802 84.5621 217.651 84.6155 217.526C91.5934 199.265 100.552 181.823 111.332 165.513C111.483 165.29 111.626 165.068 111.777 164.854C113.113 162.842 114.479 160.848 115.874 158.871C128.962 140.333 144.362 123.539 161.701 108.897C208.669 69.2322 278.318 37.3227 381.203 34.8476C381.203 34.8476 385.024 34.7407 391.81 35.0345H392.032C423.932 36.4323 519.915 46.6089 593.714 116.144C595.543 117.859 597.351 119.613 599.138 121.406C610.639 132.886 621.055 145.404 630.254 158.8C631.607 160.767 632.925 162.753 634.243 164.783C634.395 164.997 634.537 165.219 634.671 165.442C645.161 181.782 653.98 199.136 660.995 217.241C661.029 217.311 661.059 217.382 661.084 217.455L661.343 218.123C662.055 219.948 662.741 221.791 663.427 223.652L663.507 223.874C664.178 225.697 664.831 227.542 665.466 229.412C669.381 240.808 672.708 252.398 675.431 264.135C675.431 264.135 716.165 417.566 557.425 528.912Z" fill="white"/>
<path d="M663.426 223.687H82.3979C83.057 221.836 83.7338 219.993 84.4284 218.158H661.343C662.055 219.984 662.741 221.827 663.426 223.687Z" fill="#F9A826"/>
<path opacity="0.35" d="M663.426 223.687H82.3979C83.057 221.836 83.7338 219.993 84.4284 218.158H661.343C662.055 219.984 662.741 221.827 663.426 223.687Z" fill="white"/>
<path d="M665.466 229.448H80.3765C80.982 227.596 81.6143 225.744 82.2644 223.91H663.507C664.178 225.738 664.831 227.584 665.466 229.448Z" fill="#F9A826"/>
<path opacity="0.4" d="M665.466 229.448H80.3765C80.982 227.596 81.6143 225.744 82.2644 223.91H663.507C664.178 225.738 664.831 227.584 665.466 229.448Z" fill="white"/>
<path d="M380.98 158.835V164.818H111.839C113.175 162.806 114.541 160.812 115.936 158.835H380.98Z" fill="white"/>
<path d="M634.261 164.818H392.718V158.835H630.271C631.625 160.803 632.952 162.789 634.261 164.818Z" fill="white"/>
<path d="M380.981 165.478V217.491H84.6511C91.629 199.229 100.588 181.787 111.368 165.478H380.981Z" fill="#2E3135"/>
<path opacity="0.26" d="M381.203 34.8477V217.241H380.981L271.443 217.464L84.5176 217.838C84.5176 217.713 84.6066 217.589 84.6601 217.464C91.6379 199.202 100.597 181.76 111.376 165.451C111.528 165.228 111.67 165.006 111.822 164.792C113.158 162.78 114.523 160.785 115.918 158.809C129.007 140.271 144.407 123.477 161.746 108.834C208.669 69.2323 278.318 37.3228 381.203 34.8477Z" fill="white"/>
<path d="M661.084 217.491H391.827V165.478H634.688C645.17 181.807 653.984 199.149 660.995 217.242C661.03 217.323 661.06 217.406 661.084 217.491Z" fill="#2E3135"/>
<path d="M306.379 403.633L337.148 557.242H341.137L318.108 402.751L306.379 403.633Z" fill="#2E3135"/>
<path opacity="0.2" d="M306.379 403.633L309.79 420.87L320.735 418.323L318.108 402.751L306.379 403.633Z" fill="black"/>
<path d="M266.857 410.942C308.122 410.942 341.574 400.586 341.574 387.812C341.574 375.037 308.122 364.681 266.857 364.681C225.592 364.681 192.14 375.037 192.14 387.812C192.14 400.586 225.592 410.942 266.857 410.942Z" fill="#3F4347"/>
<path d="M209.185 555.47C209.185 557.678 205.204 556.129 205.204 556.129C201.437 557.456 198.338 563.252 198.338 563.252C191.258 572.547 161.372 564.356 161.372 564.356C144.763 560.153 142.332 555.283 142.332 555.283C139.01 548.161 148.272 548.695 148.272 548.695C148.107 548.716 147.95 548.778 147.815 548.875C147.681 548.972 147.572 549.1 147.499 549.249C147.425 549.398 147.39 549.563 147.396 549.729C147.402 549.894 147.449 550.056 147.533 550.2C148.949 552.603 153.855 557.741 170.687 561.035C170.687 561.035 190.172 568.834 196.174 560.145C196.705 559.371 197.358 558.688 198.107 558.123C201.295 555.755 209.203 549.176 209.203 542.454L209.426 530.95C208.713 530.879 208.027 530.844 207.404 530.835C207.689 529.944 207.876 529.392 207.876 529.392L212.088 527.407L213.869 531.787C214.048 539.231 209.185 555.47 209.185 555.47Z" fill="#E6E6E6"/>
<path d="M286.449 394.338C281.533 399.137 272.663 412.59 265.388 424.208C258.904 434.572 253.686 443.475 253.686 443.475L216.71 530.372C216.484 530.914 216.065 531.355 215.534 531.608C215.004 531.861 214.398 531.909 213.834 531.743C212.38 531.32 210.889 531.04 209.381 530.906C207.241 530.69 205.081 530.762 202.96 531.12C200.125 531.658 197.243 531.906 194.358 531.859C186.788 531.681 182.335 528.947 179.735 526.045C178.692 524.879 177.833 523.561 177.188 522.136C176.802 521.285 176.597 520.363 176.585 519.428C176.573 518.493 176.754 517.566 177.117 516.705L197.43 468.485L218.678 408.725C213.886 403.73 208.823 399.001 203.512 394.56C202.497 393.714 201.409 392.957 200.262 392.299C159.502 368.945 146.998 354.718 146.998 354.718C137.924 342.102 150.756 326.165 150.756 326.165C157.4 317.974 228.35 324.473 228.35 324.473L286.449 394.338Z" fill="#2F2E41"/>
<path opacity="0.2" d="M265.388 424.208C258.904 434.572 253.686 443.475 253.686 443.475L216.71 530.372C216.484 530.915 216.065 531.355 215.535 531.608C215.004 531.861 214.398 531.909 213.834 531.743C210.31 530.731 206.604 530.518 202.987 531.12C200.152 531.658 197.27 531.906 194.384 531.859L193.912 531.565C208.304 532.01 224.681 488.624 224.681 488.624C231.324 470.257 244.611 453.011 244.611 453.011C253.241 440.831 256.34 426.666 256.34 426.666L265.388 424.208Z" fill="black"/>
<path d="M209.408 530.906L209.212 541.412V542.409C209.212 549.131 201.304 555.711 198.116 558.079C197.366 558.644 196.714 559.326 196.183 560.1C190.181 568.799 170.696 560.99 170.696 560.99C153.882 557.696 148.975 552.559 147.541 550.155C147.458 550.012 147.411 549.85 147.405 549.684C147.399 549.518 147.434 549.353 147.507 549.205C147.581 549.056 147.689 548.927 147.824 548.83C147.959 548.734 148.116 548.672 148.281 548.65L157.703 547.413C159.129 547.222 160.535 546.906 161.906 546.469C167.094 544.841 171.563 541.477 174.561 536.942C176.765 533.549 178.516 529.883 179.77 526.036C182.371 528.938 186.823 531.672 194.393 531.85C197.278 531.897 200.161 531.649 202.996 531.111C204.448 530.858 205.921 530.748 207.395 530.781C208.01 530.799 208.695 530.835 209.408 530.906Z" fill="#F9A826"/>
<path opacity="0.2" d="M209.212 541.412V542.409C209.212 549.131 201.304 555.711 198.116 558.079C197.366 558.644 196.714 559.326 196.183 560.1C190.181 568.799 170.696 560.99 170.696 560.99C153.882 557.696 148.975 552.559 147.541 550.155C147.458 550.012 147.411 549.85 147.405 549.684C147.399 549.518 147.434 549.353 147.507 549.204C147.581 549.056 147.689 548.927 147.824 548.83C147.959 548.734 148.116 548.672 148.281 548.65L157.703 547.413C159.129 547.222 160.535 546.906 161.906 546.469C162.93 546.683 170.624 548.125 175.986 544.617C175.986 544.617 175.986 558.488 191.481 556.191C191.472 556.209 201.785 553.494 209.212 541.412Z" fill="black"/>
<path d="M194.794 418.243C204.946 413.267 215.546 409.264 226.453 406.286C226.453 406.286 250.587 398.104 267.854 407.835C267.854 407.835 272.948 409.829 272.948 418.243H194.794Z" fill="#F9A826"/>
<path d="M192.826 422.668C192.826 422.668 189.949 413.373 218.064 415.367C218.064 415.367 235.332 419.819 250.605 415.145C250.605 415.145 272.298 410.693 273.412 420.487C273.412 420.487 276.083 430.004 252.599 428.233C248.085 428.269 243.595 428.891 239.241 430.085C236.945 430.684 234.594 431.051 232.224 431.18C221.412 431.732 193.716 432.293 192.826 422.668Z" fill="#E6E6E6"/>
<path opacity="0.2" d="M214.048 404.051L218.705 408.726C218.705 408.726 247.042 396.555 267.854 407.835C268.969 408.396 269.946 409.196 270.716 410.178C271.485 411.16 272.029 412.3 272.307 413.516C272.307 413.516 280.607 400.57 285.968 394.819L281.035 394.062L270.962 406.526L253.33 391.017C253.33 391.017 241.895 389.931 234.735 388.488L247.051 397.009C247.051 397.009 226.667 396.056 214.048 404.051Z" fill="black"/>
<path d="M309.701 179.643C309.701 193.594 302.577 205.32 293.03 208.605C291.269 209.201 289.422 209.502 287.562 209.496C280.028 209.496 273.376 204.43 269.377 196.675C266.727 191.381 265.372 185.535 265.423 179.616C265.423 163.118 275.335 149.736 287.562 149.736C299.789 149.736 309.701 163.145 309.701 179.643Z" fill="#F9B499"/>
<path d="M279.369 135.375C297.518 133.826 307.706 147.991 307.706 147.991C315.231 155.114 314.35 167.249 314.35 167.249C318.108 174.114 309.487 175.325 309.487 175.325C309.283 173.446 308.73 170.677 308.73 170.677C299.825 171.897 294.419 167.472 294.419 167.472C293.919 169.356 293.919 171.339 294.419 173.223C286.226 172.333 280.919 162.379 280.919 162.379C280.937 164.517 280.395 166.623 279.347 168.486C278.298 170.35 276.78 171.906 274.943 173.001C273.83 173.446 273.394 170.125 273.394 170.125C271.844 179.206 266.269 181.219 266.269 181.219L257.257 184.7C257.257 184.7 251.7 182.741 252.59 175.44C252.59 175.44 247.924 176.678 246.588 169.208C245.921 165.441 246.471 161.559 248.159 158.125C249.846 154.691 252.584 151.884 255.974 150.11C259.617 148.299 263.575 147.21 267.632 146.905C267.632 146.905 269.849 135.375 279.369 135.375Z" fill="#2F2E41"/>
<path opacity="0.2" d="M263.179 164.596C263.209 167.518 262.525 170.404 261.184 173.001C261.184 173.001 257.862 178.761 260.961 178.761C260.961 178.761 263.402 179.206 270.927 171.015C270.927 171.015 279.939 166.519 280.723 163.786L280.865 162.379L281.667 163.599C286.627 163.115 291.456 161.727 295.915 159.503C295.915 159.503 288.613 158.177 287.286 155.052C287.286 155.052 296.931 158.844 303.173 157.945C303.173 157.945 300.564 160.803 297.242 160.144C297.242 160.144 305.435 169.876 314.296 167.223C314.296 167.223 308.312 149.959 289.058 149.078C289.058 149.078 287.945 145.757 293.262 145.516C293.262 145.516 286.137 141.314 274.667 153.262C274.667 153.262 256.954 153.039 250.088 170.748C250.141 170.793 256.562 163.928 263.179 164.596Z" fill="black"/>
<path d="M283.573 229.003H277.82L269.849 222.138C265.201 218.158 265.085 214.063 265.085 214.063C264.953 212.334 265.236 210.598 265.91 209C266.584 207.402 267.629 205.988 268.959 204.875L269.377 196.701C273.376 204.456 280.064 209.522 287.562 209.522C289.422 209.529 291.269 209.228 293.03 208.632L293.093 213.084C298.409 217.713 283.573 229.003 283.573 229.003Z" fill="#F9B499"/>
<path d="M269.413 196.701L269.172 202.043C269.172 202.043 278.078 220.019 294.223 216.209C294.329 215.635 294.284 215.043 294.092 214.492C293.9 213.941 293.568 213.45 293.128 213.066L293.066 208.614C293.066 208.614 278.657 214.205 269.413 196.701Z" fill="#F7A48B"/>
<path d="M261.042 319.799C248.467 320.947 228.332 324.473 228.332 324.473L228.002 292.742C221.893 305.117 215.366 311.483 211.901 314.234C210.437 315.409 208.776 316.313 206.994 316.905C199.63 319.336 194.429 317.849 190.867 315.303C188.935 313.907 187.341 312.095 186.204 310C185.066 307.906 184.414 305.583 184.294 303.203C184.231 301.995 184.297 300.783 184.49 299.588C185.001 296.725 185.725 293.904 186.654 291.148C194.304 267.999 216.274 236.09 216.274 236.09C223.576 214.846 257.123 211.81 257.123 211.81C253.704 216.075 256.785 239.188 256.785 239.188L261.042 319.799Z" fill="#F9A826"/>
<path d="M245.261 214.054L237.522 252.24L247.933 253.567L241.957 257.778L252.644 320.823L261.077 319.799L256.821 239.179C256.821 239.179 253.739 216.511 257.159 211.802C253.14 212.239 249.162 212.993 245.261 214.054Z" fill="#F9A826"/>
<path opacity="0.4" d="M245.261 214.054L237.522 252.24L247.933 253.567L241.957 257.778L252.644 320.823L261.077 319.799L256.821 239.179C256.821 239.179 253.739 216.511 257.159 211.802C253.14 212.239 249.162 212.993 245.261 214.054Z" fill="white"/>
<path d="M372.716 312.587C372.716 312.587 337.646 313.193 287.224 317.039L286.021 317.128L295.595 235.217L300.119 212.318C304.064 213.349 307.933 214.655 311.696 216.226C323.647 221.141 341.084 231.077 345.359 248.278L372.716 312.587Z" fill="#F9A826"/>
<path d="M311.465 257.306L303.717 255.757L310.841 262.399L293.395 316.54L287.161 317.021L285.959 317.11L295.533 235.199L300.057 212.3C304.002 213.332 307.871 214.638 311.634 216.209L311.465 257.306Z" fill="#F9A826"/>
<path opacity="0.4" d="M311.465 257.306L303.717 255.757L310.841 262.399L293.395 316.54L287.161 317.021L285.959 317.11L295.533 235.199L300.057 212.3C304.002 213.332 307.871 214.638 311.634 216.209L311.465 257.306Z" fill="white"/>
<path d="M236.952 277.999C238.722 274.933 235.762 269.91 230.34 266.78C224.918 263.651 219.087 263.599 217.316 266.665C215.545 269.731 218.506 274.754 223.928 277.884C229.35 281.013 235.181 281.065 236.952 277.999Z" fill="#2F2E41"/>
<path opacity="0.2" d="M217.378 271.276C188.72 293.383 184.366 303.078 184.366 303.078L184.294 303.194C184.231 301.986 184.297 300.774 184.49 299.579C185.001 296.716 185.725 293.895 186.654 291.139C189.347 288.242 192.295 285.593 195.462 283.224L217.316 266.664C216.964 267.384 216.786 268.176 216.797 268.977C216.808 269.778 217.007 270.566 217.378 271.276Z" fill="black"/>
<path opacity="0.2" d="M228.002 292.742L232.651 284.996C232.651 284.996 232.411 312.801 237.736 323.022L228.332 324.473L228.002 292.742Z" fill="black"/>
<path d="M254.835 256.47L252.207 256.612C251.998 256.635 251.788 256.583 251.614 256.466C251.439 256.348 251.312 256.173 251.255 255.971L248.583 247.308C248.531 247.169 248.514 247.019 248.534 246.871C248.555 246.724 248.612 246.584 248.701 246.465C248.789 246.345 248.907 246.25 249.041 246.187C249.176 246.124 249.325 246.097 249.473 246.106L253.436 246.266L254.22 251.608L253.062 242.411L247.087 242.607C246.824 242.617 246.568 242.687 246.338 242.814C246.107 242.94 245.91 243.119 245.761 243.335C245.612 243.551 245.516 243.799 245.48 244.059C245.445 244.32 245.47 244.584 245.555 244.833L250.56 259.684C250.694 260.083 250.954 260.428 251.301 260.667C251.648 260.906 252.063 261.026 252.484 261.01L255.405 260.93L254.835 256.47Z" fill="#C2C4C6"/>
<path d="M254.933 256.47L254.22 251.635L254.835 256.47H254.933Z" fill="#C2C4C6"/>
<path d="M263.874 195.579C268.153 195.579 271.622 192.311 271.622 188.279C271.622 184.247 268.153 180.978 263.874 180.978C259.595 180.978 256.126 184.247 256.126 188.279C256.126 192.311 259.595 195.579 263.874 195.579Z" fill="#F9B499"/>
<path d="M295.969 207.314C295.969 207.314 302.612 209.522 300.84 223.91L299.291 240.515C299.291 240.515 292.433 230.552 283.573 229.003C283.573 229.003 298.409 217.491 293.092 213.066L293.03 208.614C294.033 208.236 295.014 207.802 295.969 207.314Z" fill="#2F2E41"/>
<path d="M268.959 204.875L269.137 202.043C269.137 202.043 260.944 205.462 257.123 211.837C256.171 213.427 255.65 215.237 255.609 217.09C255.382 224.485 255.775 231.886 256.785 239.215C256.785 239.215 266.305 229.697 277.82 229.038L269.849 222.174C269.849 222.174 260.107 214.392 268.959 204.875Z" fill="#2F2E41"/>
<path d="M218.972 274.009C218.972 274.009 227.789 265.106 230.665 257.556C230.665 257.556 234.646 243.613 243.284 243.613C243.284 243.613 252.804 242.945 252.136 247.37C252.136 247.37 252.359 248.483 250.809 248.483C250.809 248.483 251.477 249.142 251.477 251.154C251.477 251.154 254.576 254.03 252.368 259.782C252.368 259.782 250.373 266.904 244.843 265.319C244.843 265.319 245.502 276.164 235.759 277.045L232.197 280.241C232.197 280.241 226.097 280.945 218.972 274.009Z" fill="#F9B499"/>
<path d="M248.815 256.666C248.296 257.449 247.894 258.304 247.621 259.203C247.142 260.826 246.79 262.484 246.57 264.162C246.517 264.536 246.464 264.919 246.383 265.302C245.929 262.542 246.428 258.455 248.815 256.666Z" fill="#F7A48B"/>
<path d="M249.037 252.018C249.342 251.853 249.677 251.753 250.022 251.723C250.367 251.693 250.715 251.733 251.044 251.843C251.372 251.952 251.675 252.127 251.934 252.358C252.192 252.589 252.4 252.87 252.546 253.184C253.142 254.373 253.32 255.728 253.053 257.03C252.893 256.398 252.777 255.784 252.608 255.187C252.136 253.318 251.21 251.768 249.046 252.018H249.037Z" fill="#F7A48B"/>
<path d="M250.809 248.483C249.857 248.181 248.824 247.842 247.862 247.638C247.523 247.548 247.185 247.486 246.82 247.37C247.162 247.215 247.531 247.127 247.906 247.112C248.467 247.075 249.028 247.182 249.536 247.421C250.044 247.661 250.482 248.027 250.809 248.483Z" fill="#F7A48B"/>
<path d="M218.972 274.009L220.477 272.46C225.057 275.345 230.338 276.925 235.75 277.027L232.188 280.224C232.188 280.224 226.097 280.945 218.972 274.009Z" fill="#F7A48B"/>
<path d="M278.042 238.298V238.422C277.882 238.93 276.707 239.384 274.845 239.749C271.559 240.297 268.23 240.554 264.898 240.515C257.774 240.515 252.012 239.571 251.736 238.387V238.298C251.736 237.078 257.64 236.081 264.916 236.081C272.191 236.081 278.042 237.078 278.042 238.298Z" fill="#E1E1E2"/>
<path d="M278.016 238.422L273.438 265.132C273.3 265.932 272.884 266.657 272.263 267.18C271.642 267.703 270.857 267.99 270.045 267.99H258.726C258.106 267.996 257.497 267.833 256.962 267.519C256.427 267.206 255.987 266.753 255.69 266.21C255.492 265.851 255.365 265.458 255.316 265.052L251.753 238.467C252.029 239.651 257.818 240.595 264.916 240.595C268.248 240.634 271.576 240.377 274.863 239.829C276.68 239.384 277.855 238.93 278.016 238.422Z" fill="#C2C4C6"/>
<path opacity="0.2" d="M278.015 238.422L273.438 265.132C273.3 265.932 272.883 266.657 272.263 267.18C271.642 267.703 270.857 267.99 270.045 267.99H258.726C258.106 267.996 257.497 267.833 256.962 267.519C256.427 267.206 255.987 266.753 255.689 266.21C258.103 264.705 265.129 259.648 270.544 249L274.854 239.829C276.68 239.384 277.855 238.93 278.015 238.422Z" fill="black"/>
<path d="M392.05 35.0434V223.687H381.203V34.8476C381.203 34.8476 385.024 34.7407 391.81 35.0345L392.05 35.0434Z" fill="#F9A826"/>
<path opacity="0.35" d="M392.05 35.0434V223.687H381.203V34.8476C381.203 34.8476 385.024 34.7407 391.81 35.0345L392.05 35.0434Z" fill="white"/>
<path opacity="0.26" d="M660.995 217.241L599.156 217.393H593.732L573.775 217.437L392.05 217.883H391.827V35.0347H392.05C423.949 36.4325 519.933 46.609 593.732 116.144C595.561 117.859 597.369 119.613 599.156 121.406C610.657 132.886 621.073 145.404 630.271 158.8C631.625 160.768 632.943 162.753 634.261 164.783C634.412 164.997 634.555 165.219 634.688 165.442C645.173 181.783 653.986 199.137 660.995 217.241Z" fill="white"/>
<path d="M183.724 373.531L262.76 573.17L266.75 571.185L189.931 375.302L183.724 373.531Z" fill="#C2C4C6"/>
<path d="M264.087 383.271L189.486 572.957L185.497 570.962L257.889 385.043L264.087 383.271Z" fill="#C2C4C6"/>
<path d="M624.955 376.852L548.127 572.511L544.146 570.517L618.748 378.623L624.955 376.852Z" fill="#C2C4C6"/>
<path d="M599.931 397.214C593.093 397.164 586.292 398.21 579.786 400.312L600.821 548.383L597.259 548.829L568.939 402.084C537.058 412.047 501.641 405.645 501.641 405.645L475.076 549.051H469.733L490.767 402.084C466.633 398.522 467.079 376.852 467.079 376.852C466.033 364.821 464.359 352.854 462.065 340.998C456.223 309.729 447.816 280.589 447.816 280.589C440.394 262.171 434.422 243.203 429.952 223.857C429.159 220.367 428.776 218.399 428.776 218.399C428.331 212.167 445.599 214.838 445.599 214.838C465.992 215.594 488.487 210.19 500.545 206.727C509.933 204.015 519.684 202.772 529.453 203.041C576.892 204.465 567.577 236.081 567.577 236.081L562.234 320.663L616.254 377.324C616.317 391.685 599.931 397.214 599.931 397.214Z" fill="#3F4347"/>
<path opacity="0.2" d="M462.332 341.158L462.065 340.98C456.223 309.712 447.816 280.571 447.816 280.571C440.394 262.154 434.421 243.185 429.952 223.839L452.937 259.087C452.937 259.087 475.281 283.126 462.332 341.158Z" fill="black"/>
<path d="M655.412 351.397C655.351 353.195 654.679 354.919 653.506 356.285C638.295 375.614 534.003 390.572 407.617 390.572C279.717 390.572 174.445 375.258 161.22 355.59C160.342 354.366 159.854 352.904 159.822 351.397C159.822 329.762 270.767 312.222 407.617 312.222C544.467 312.222 655.412 329.762 655.412 351.397Z" fill="#E1E1E2"/>
<path d="M408.338 249.774C408.004 252.682 407.051 255.484 405.542 257.992C402.731 264.706 401.512 271.98 401.98 279.244C405.542 298.725 382.717 318.419 382.717 318.419C359.919 316.425 310.77 325.942 310.77 325.942C294.606 330.59 284.641 314.662 284.641 314.662C284.641 311.1 298.373 269.059 298.373 269.059C313.985 270.759 334.797 266.735 343.667 264.758C346.141 264.212 348.565 263.462 350.916 262.515C368.335 255.526 386.965 253.344 386.965 253.344C398.23 251.875 404.562 249.783 407.109 248.821C407.255 248.759 407.415 248.738 407.572 248.758C407.729 248.778 407.878 248.84 408.003 248.937C408.129 249.034 408.226 249.163 408.284 249.31C408.343 249.457 408.362 249.617 408.338 249.774Z" fill="white"/>
<path d="M400.021 318.419L388.951 332.139C369.029 326.165 311.028 331.925 311.028 331.925C296.192 334.801 293.315 334.133 293.315 334.133C278.042 331.703 284.677 314.662 284.677 314.662C284.677 314.662 294.642 330.59 310.806 325.942C310.806 325.942 359.955 316.424 382.753 318.419H400.021Z" fill="#E6E6E6"/>
<path d="M313.05 279.022C313.05 279.022 313.94 287.435 311.723 293.855L304.42 304.699L336.738 301.6C336.738 301.6 336.961 293.855 338.956 289.643C338.956 289.643 341.832 281.016 340.95 274.597C340.915 274.597 322.32 277.25 313.05 279.022Z" fill="#CCCCCC"/>
<path d="M352.234 272.825C363.766 268.106 376.448 265.551 388.541 262.648C379.324 269.771 363.748 273.154 352.234 272.825Z" fill="#CCCCCC"/>
<path d="M351.539 282.343C363.179 278.354 375.21 276.6 387.401 275.22C377.561 281.061 362.867 283.331 351.539 282.343Z" fill="#CCCCCC"/>
<path d="M348.885 292.964C360.605 289.002 373.402 287.622 385.629 286.109C376.225 292.029 359.866 294.059 348.885 292.964Z" fill="#CCCCCC"/>
<path d="M345.786 306.471C345.786 306.471 343.034 316.175 335.554 321.945C335.554 321.945 363.49 317.885 372.235 318.152L378.995 305.58C378.995 305.58 375.673 306.693 345.786 306.471Z" fill="#CCCCCC"/>
<path d="M404.776 297.318C404.776 297.318 403.743 302.072 400.911 304.343C399.21 305.705 396.868 306.177 393.707 304.182C391.527 301.84 390.34 298.745 390.394 295.546C389.227 295.46 388.114 295.019 387.206 294.282C386.591 293.614 386.377 292.626 387.295 291.121C387.295 291.121 378.879 290.685 383.305 286.251C383.305 286.251 379.102 280.277 394.82 278.069C394.82 278.069 400.359 278.479 401.686 277.339C402.042 277.036 402.095 276.627 401.686 276.075C401.686 276.075 400.582 274.08 396.156 274.525C396.156 274.525 391.952 275.416 390.509 272.202C390.509 272.202 389.405 269.326 396.262 268.881C396.262 268.881 405.675 267.438 406.78 271.65C406.771 271.65 412.791 286.687 404.776 297.318Z" fill="#F9B499"/>
<path d="M401.695 277.339C402.051 277.036 402.104 276.627 401.695 276.075C401.695 276.075 400.59 274.08 396.164 274.525C396.164 274.525 391.961 275.416 390.518 272.202C390.518 272.202 400.813 270.314 402.585 272.976C402.567 272.976 405.257 276.84 401.695 277.339Z" fill="#F7A48B"/>
<path d="M383.305 286.251C389.387 285.147 395.523 284.328 401.677 283.821C395.603 284.933 389.468 285.744 383.305 286.251Z" fill="#F7A48B"/>
<path d="M387.294 291.139C390.379 290.762 393.493 290.688 396.592 290.917C393.508 291.298 390.393 291.372 387.294 291.139Z" fill="#F7A48B"/>
<path d="M400.911 304.343C399.21 305.705 396.868 306.177 393.707 304.182C391.527 301.84 390.34 298.745 390.394 295.546C389.227 295.46 388.114 295.019 387.206 294.282C388.812 294.738 390.479 294.945 392.148 294.896C392.148 294.896 393.653 304.824 400.911 304.343Z" fill="#F7A48B"/>
<path d="M547.905 388.586L620.52 572.289L624.51 570.294L554.103 390.358L547.905 388.586Z" fill="#C2C4C6"/>
<path d="M654.904 360.469C654.904 382.104 543.968 399.644 407.109 399.644C270.25 399.644 159.314 382.096 159.314 360.469C159.377 358.674 160.049 356.953 161.22 355.59C174.445 375.258 279.716 390.572 407.617 390.572C534.003 390.572 638.268 375.614 653.506 356.285C654.384 357.506 654.872 358.965 654.904 360.469Z" fill="#9EA0A3"/>
<path d="M599.156 121.415V219.592H593.732V116.153C595.561 117.868 597.369 119.622 599.156 121.415Z" fill="#F9A826"/>
<path opacity="0.35" d="M599.156 121.415V219.592H593.732V116.153C595.561 117.868 597.369 119.622 599.156 121.415Z" fill="white"/>
<path d="M259.43 227.926C259.43 227.926 262.208 227.035 260.695 223.554C260.389 223.01 260.228 222.397 260.228 221.773C260.228 221.15 260.389 220.536 260.695 219.993C260.695 219.993 257.693 220.883 259.43 223.981C259.819 224.566 260.026 225.252 260.026 225.953C260.026 226.655 259.819 227.341 259.43 227.926Z" fill="#E6E6E6"/>
<path d="M263.233 228.193C263.233 228.193 266.02 227.302 264.497 223.821C264.194 223.277 264.035 222.664 264.035 222.04C264.035 221.417 264.194 220.804 264.497 220.26C264.497 220.26 261.505 221.106 263.233 224.248C263.621 224.833 263.829 225.519 263.829 226.221C263.829 226.922 263.621 227.608 263.233 228.193Z" fill="#E6E6E6"/>
<path d="M267.008 227.926C267.008 227.926 269.796 227.035 268.273 223.554C267.97 223.01 267.81 222.397 267.81 221.773C267.81 221.15 267.97 220.537 268.273 219.993C268.273 219.993 265.281 220.883 267.008 223.981C267.397 224.566 267.604 225.252 267.604 225.953C267.604 226.655 267.397 227.341 267.008 227.926Z" fill="#E6E6E6"/>
</svg>
